# xmcd CD database file
#
# Track frame offsets:
#	150
#	22411
#	40040
#	61109
#	83166
#	101958
#	112225
#	135518
#	161187
#	179714
#	200059
#	225958
#
# Disc length: 3277 seconds
#
# Revision: 0
# Processed by: cddbd v1.5.2PL0 Copyright (c) Steve Scherf et al.
# Submitted via: CDex 1.50beta10
#
DISCID=ab0ccb0c
DTITLE=The Peoples String Foundation - Making Waves
DYEAR=2010
DGENRE=Jazz
TTITLE0=Overture
TTITLE1=Cats Not Home
TTITLE2=Water In The River
TTITLE3=The Rudiments
TTITLE4=Rest For The Wicked
TTITLE5=Red Dress Woman In Black
TTITLE6=These Skies
TTITLE7=Problems Left Behind
TTITLE8=All My Days
TTITLE9=City In The Summer
TTITLE10=Twins
TTITLE11=Making Waves
EXTD=YEAR: 2010
EXTT0=
EXTT1=
EXTT2=
EXTT3=
EXTT4=
EXTT5=
EXTT6=
EXTT7=
EXTT8=
EXTT9=
EXTT10=
EXTT11=
PLAYORDER=
